<svg width="20" height="20" viewBox="0 0 20 20" fill="none" xmlns="http://www.w3.org/2000/svg">
<path d="M9.08334 1.75006C5.25001 2.16673 2.16667 5.25006 1.75001 9.00006C1.33334 12.9167 3.58334 16.4167 7.00001 17.7501C7.25001 17.8334 7.50001 17.6667 7.50001 17.3334V16.0001C7.50001 16.0001 7.16667 16.0834 6.75001 16.0834C5.58334 16.0834 5.08334 15.0834 5.00001 14.5001C4.91667 14.1667 4.75001 13.9167 4.50001 13.6667C4.25001 13.5834 4.16667 13.5834 4.16667 13.5001C4.16667 13.3334 4.41667 13.3334 4.50001 13.3334C5.00001 13.3334 5.41667 13.9167 5.58334 14.1667C6.00001 14.8334 6.50001 15.0001 6.75001 15.0001C7.08334 15.0001 7.33334 14.9167 7.50001 14.8334C7.58334 14.2501 7.83334 13.6667 8.33334 13.3334C6.41667 12.9167 5.00001 11.8334 5.00001 10.0001C5.00001 9.0834 5.41667 8.16673 6.00001 7.50006C5.91667 7.3334 5.83334 6.91673 5.83334 6.3334C5.83334 6.00006 5.83334 5.5834 6.00001 5.25006C6.00001 5.0834 6.16667 5.00006 6.25001 5.00006H6.33334C6.75001 5.0834 7.58334 5.3334 8.33334 6.0834C8.83334 5.91673 9.41667 5.8334 10 5.8334C10.5833 5.8334 11.1667 5.91673 11.6667 6.0834C12.4167 5.3334 13.3333 5.0834 13.75 5.00006H13.8333C14 5.00006 14.0833 5.0834 14.1667 5.25006C14.1667 5.5834 14.1667 6.00006 14.1667 6.3334C14.1667 7.00006 14.0833 7.3334 14 7.50006C14.5833 8.16673 15 9.00006 15 10.0001C15 11.8334 13.5833 12.9167 11.6667 13.3334C12.1667 13.7501 12.5 14.5001 12.5 15.2501V17.4167C12.5 17.6667 12.75 17.9167 13.0833 17.8334C16.1667 16.5834 18.3333 13.5834 18.3333 10.0834C18.3333 5.0834 14.0833 1.16673 9.08334 1.75006Z" fill="black"/>
</svg>
